<svg xmlns="http://www.w3.org/2000/svg" xmlns:xlink="http://www.w3.org/1999/xlink" width="490.613" height="397.241" viewBox="0 0 490.613 397.241">
  <defs>
    <linearGradient id="linear-gradient" y1="0.5" x2="1" y2="0.5" gradientUnits="objectBoundingBox">
      <stop offset="0" stop-color="#183866"/>
      <stop offset="1" stop-color="#1a7fc1"/>
    </linearGradient>
    <linearGradient id="linear-gradient-2" x1="-0.001" y1="0.501" x2="1" y2="0.501" gradientUnits="objectBoundingBox">
      <stop offset="0"/>
      <stop offset="0.99" stop-opacity="0"/>
    </linearGradient>
    <linearGradient id="linear-gradient-3" x1="1.761" y1="-5.66" x2="3.104" y2="-5.346" xlink:href="#linear-gradient-2"/>
    <linearGradient id="linear-gradient-4" x1="0.589" y1="-2.58" x2="0.523" y2="-2.773" xlink:href="#linear-gradient-2"/>
    <linearGradient id="linear-gradient-5" x1="1.561" y1="-0.633" x2="0.081" y2="-0.761" xlink:href="#linear-gradient-2"/>
    <linearGradient id="linear-gradient-6" x1="23.61" y1="-165.849" x2="21.626" y2="-166.475" xlink:href="#linear-gradient-2"/>
    <linearGradient id="linear-gradient-7" x1="2.414" y1="-4.261" x2="1.331" y2="-4.122" xlink:href="#linear-gradient-2"/>
    <linearGradient id="linear-gradient-8" x1="1.069" y1="0.225" x2="-0.358" y2="0.193" gradientUnits="objectBoundingBox">
      <stop offset="0"/>
      <stop offset="1" stop-opacity="0"/>
    </linearGradient>
    <linearGradient id="linear-gradient-9" x1="0.142" y1="-0.413" x2="1.142" y2="-0.413" xlink:href="#linear-gradient"/>
    <linearGradient id="linear-gradient-10" x1="0.404" y1="0.395" x2="0.714" y2="0.68" xlink:href="#linear-gradient-2"/>
    <linearGradient id="linear-gradient-11" x1="-0.125" y1="0.449" x2="0.937" y2="0.534" xlink:href="#linear-gradient-2"/>
    <linearGradient id="linear-gradient-12" x1="0.537" y1="0.423" x2="0.437" y2="0.806" xlink:href="#linear-gradient-2"/>
    <linearGradient id="linear-gradient-13" x1="1.909" y1="-3.332" x2="1.022" y2="-3.35" xlink:href="#linear-gradient-2"/>
    <linearGradient id="linear-gradient-14" x1="1.686" y1="-1.263" x2="1.115" y2="-1.269" xlink:href="#linear-gradient-2"/>
    <linearGradient id="linear-gradient-15" x1="0.57" y1="0.436" x2="0.281" y2="0.7" xlink:href="#linear-gradient-2"/>
    <linearGradient id="linear-gradient-16" x1="0.581" y1="-14.736" x2="0.572" y2="-13.702" xlink:href="#linear-gradient-2"/>
    <linearGradient id="linear-gradient-17" y1="0.5" x2="1" y2="0.5" gradientUnits="objectBoundingBox">
      <stop offset="0" stop-color="#ecc4d7"/>
      <stop offset="0.42" stop-color="#efd4d1"/>
      <stop offset="1" stop-color="#f2eac9"/>
    </linearGradient>
    <linearGradient id="linear-gradient-18" x1="0.99" y1="-1.633" x2="1.99" y2="-1.633" xlink:href="#linear-gradient-17"/>
    <linearGradient id="linear-gradient-19" x1="1.243" y1="-0.846" x2="2.243" y2="-0.846" xlink:href="#linear-gradient-17"/>
    <linearGradient id="linear-gradient-20" x1="1.289" y1="1.004" x2="0.241" y2="1.531" gradientUnits="objectBoundingBox">
      <stop offset="0" stop-color="#362958" stop-opacity="0.502"/>
      <stop offset="1" stop-color="#34313d" stop-opacity="0"/>
    </linearGradient>
    <linearGradient id="linear-gradient-21" x1="39.909" y1="-342.252" x2="38.744" y2="-342.683" xlink:href="#linear-gradient-2"/>
  </defs>
  <g id="illustration-working" transform="translate(0 -54.828)">
    <path id="Path_1" data-name="Path 1" d="M395.921,76c-13.247-18.449-23.5-40.472-39.335-55.528-24.87-23.7-60.663-26.009-89.743-11.121s-51.734,44.9-66.665,78.872c-7.854,17.878-14.024,37.379-25.533,51.988-9.729,12.342-22.516,20.22-34.645,28.8-19.548,13.791-38.373,30.454-51.023,53.319s-18.3,52.894-10.219,78.662c5.453,17.39,16.436,31.221,27.688,43.747,13.242,14.727,27.474,28.516,43.9,37.291,20.563,10.917,43.389,13.264,65.775,14.375a691.183,691.183,0,0,0,118.949-4.387c32.359-3.992,65.7-10.807,92.771-32.867,37.925-30.893,57.479-87.495,61.881-143,1.791-22.2,1.338-45.269-5.662-65.867C467.319,101.013,422.149,112.534,395.917,76Z" transform="translate(0 54.828)" fill="#eff1f7"/>
    <path id="Path_2" data-name="Path 2" d="M178.317,202.334s-16.6-2.947-21.25,8.669,0,51.733,0,51.733L219,307Z" fill="#3f3d56"/>
    <path id="Path_3" data-name="Path 3" d="M256.2,379.727l-24.555,7.008a6.8,6.8,0,0,1-8.372-4.386,6.474,6.474,0,0,1,4.55-8.069l24.522-7.014a6.8,6.8,0,0,1,8.372,4.379,6.472,6.472,0,0,1-4.517,8.082Z" fill="#2bd0d0"/>
    <circle id="Ellipse_1" data-name="Ellipse 1" cx="11" cy="11" r="11" transform="translate(244 384)" fill="#25233a"/>
    <circle id="Ellipse_2" data-name="Ellipse 2" cx="5.5" cy="5.5" r="5.5" transform="translate(248 392)" fill="#3f3d56"/>
    <circle id="Ellipse_3" data-name="Ellipse 3" cx="11" cy="11" r="11" transform="translate(199 373)" fill="#25233a"/>
    <path id="Path_4" data-name="Path 4" d="M214,384.5a5.5,5.5,0,1,1-5.5-5.5,5.5,5.5,0,0,1,5.5,5.5Z" fill="url(#linear-gradient)"/>
    <circle id="Ellipse_4" data-name="Ellipse 4" cx="11" cy="11" r="11" transform="translate(196 388)" fill="#25233a"/>
    <path id="Path_5" data-name="Path 5" d="M216,399.5a5.5,5.5,0,1,1-5.5-5.5,5.5,5.5,0,0,1,5.5,5.5Z" fill="#3f3d56"/>
    <path id="Path_6" data-name="Path 6" d="M257.085,390.874,206.3,380.828a6.5,6.5,0,0,1-5.168-7.636,6.623,6.623,0,0,1,7.785-5.066L259.7,378.153a6.5,6.5,0,0,1,5.168,7.637,6.623,6.623,0,0,1-7.785,5.084Z" fill="#2bd0d0"/>
    <path id="Path_7" data-name="Path 7" d="M226,310h14v59a7,7,0,1,1-13.993,0V310Z" fill="#2bd0d0"/>
    <path id="Path_8" data-name="Path 8" d="M231.187,386.708l-24.537,7.025a6.791,6.791,0,0,1-8.375-4.388,6.479,6.479,0,0,1,4.548-8.074l24.537-7a6.791,6.791,0,0,1,8.368,4.381,6.477,6.477,0,0,1-4.541,8.06Z" fill="#2bd0d0"/>
    <path id="Path_9" data-name="Path 9" d="M236,386.26l-3.125.551a12.889,12.889,0,0,1-2.875.172l1.3-.228a10.3,10.3,0,0,0,2.507-.755Z" fill="url(#linear-gradient-2)"/>
    <path id="Path_10" data-name="Path 10" d="M261,372.738A6.914,6.914,0,0,1,259.54,377L239,372.65a7.114,7.114,0,0,0,1.1-2.462l12.654-3.923a6.2,6.2,0,0,1,4.913.579,6.713,6.713,0,0,1,3.083,4.048,7.14,7.14,0,0,1,.252,1.846Z" fill="url(#linear-gradient-3)"/>
    <path id="Path_11" data-name="Path 11" d="M225.22,371.1a5.776,5.776,0,0,1-.22-1.58V311h5.943v63.07A1.883,1.883,0,0,0,231,375a9.276,9.276,0,0,0-2.845-.511,17.969,17.969,0,0,0-2.076,0l.425-.1c.262-.04-.94-2.091-1.283-3.286Z" opacity="0.31" fill="url(#linear-gradient-4)"/>
    <path id="Path_12" data-name="Path 12" d="M262.289,389.8a6.67,6.67,0,0,1-3.17.8,7.062,7.062,0,0,1-1.33-.13l-22.407-4.406-1.867-.363a6.54,6.54,0,0,1-2.133,1.055l-1.11.317-23.025,6.666A6.676,6.676,0,0,1,199,389.373a5.791,5.791,0,0,0,7.223.4c2.811-1.9,14-4.743,20.341-6.257a7.677,7.677,0,0,0,5.848-6,4.144,4.144,0,0,1,.08-.517c1.056,1.113,3,2.362,6.505,3.423,8.64,2.589,22.667,4.3,22.667,4.3s2.532,2.42.625,5.073Z" opacity="0.31" fill="url(#linear-gradient-5)"/>
    <path id="Path_13" data-name="Path 13" d="M264,388a7.624,7.624,0,0,1-2,2Q263.012,389.012,264,388Z" fill="url(#linear-gradient-6)"/>
    <path id="Path_14" data-name="Path 14" d="M226.3,370.559a6.82,6.82,0,0,0,1.7,3.13c-.21.039-.425.092-.641.151L206.088,380a6.612,6.612,0,0,1-5.044-7.146A6.693,6.693,0,0,1,207.6,367a7.142,7.142,0,0,1,1.35.132Z" fill="url(#linear-gradient-7)"/>
    <path id="Path_15" data-name="Path 15" d="M259,89.407S258.724,68.6,241.925,70.4s-15.511-5.1-22.687-4.339-15.51,7.786-13.117,16.468-6.332,10.623-12.064,17.21,1.349,11.976,11.006,18.416-.6,4.773,5.125,14.955,25.107-2.825,25.107-2.825Z" fill="#503164"/>
    <path id="Path_16" data-name="Path 16" d="M122.664,434.6l11.73.4V341.255s.59-24.241,23.452-26.673,230.2-32.466,230.2-32.466,8.218-.87,12.951,14.9,9.34,77.787,9.34,77.787l63.64,8.577s1.68-109.55-21.3-115.6-323.522,24.76-323.522,24.76S106.859,408.9,122.664,434.6Z" fill="#2bd0d0"/>
    <path id="Path_17" data-name="Path 17" d="M122.664,434.6l11.73.4V341.255s.59-24.241,23.452-26.673,230.2-32.466,230.2-32.466,8.218-.87,12.951,14.9,9.34,77.787,9.34,77.787l63.64,8.577s1.68-109.55-21.3-115.6-323.522,24.76-323.522,24.76S106.859,408.9,122.664,434.6Z" opacity="0.197" fill="url(#linear-gradient-8)"/>
    <path id="Path_18" data-name="Path 18" d="M62,303.784s5.744-31.756,46.144-40.079l285.183-32.643s28-1.16,40.8,6.587,31.088,14.168,38.583,49.223S482,381.814,482,381.814l-7.09,1.1s-10.348-108.44-21.31-115.306-307.4,35.255-307.4,35.255-20.561,4.088-22.352,34.532,0,96.605,0,96.605L62,409.057Z" fill="#2bd0d0"/>
    <path id="Path_19" data-name="Path 19" d="M355.425,243.844c-14.762-1.9-29.644-3.276-44.519-2.72-11.18.433-22.286,1.966-33.372,3.493l-97.775,13.5c-1.66.23-3.55.6-4.38,2.044-1.592,2.752,2.15,5.464,5.182,6.512,32.51,11.256,67.243,22.656,100.708,14.63,15.3-3.669,29.511-11.288,45.03-13.935s31.448-.21,46.933-2.706c14.557-2.345,28.417-9.009,43.172-9.074,4.525,0,9.183.577,13.475-.839s8.088-5.739,6.9-10.05c-13.853-.478-29.4-3.007-42.992-.262-13.449,2.712-24.894-.6-38.362-.6Z" opacity="0.19" fill="url(#linear-gradient-9)"/>
    <path id="Path_20" data-name="Path 20" d="M267,259.38l.57,2.114s16.881,10.173,16.775,10.5,70.024-16.24,70.024-16.24L356,251Z" fill="#2bd0d0"/>
    <path id="Path_21" data-name="Path 21" d="M267,259.38l.57,2.114s16.881,10.173,16.775,10.5,70.024-16.24,70.024-16.24L356,251Z" fill="url(#linear-gradient-10)"/>
    <path id="Path_22" data-name="Path 22" d="M268,259.364,330.107,246,356,251.054,285.442,268Z" fill="#2bd0d0"/>
    <path id="Path_23" data-name="Path 23" d="M268,259.364,330.107,246,356,251.054,285.442,268Z" fill="url(#linear-gradient-11)"/>
    <path id="Path_24" data-name="Path 24" d="M247.832,270.484l14.457.512s3.672.228,4.62-2.717-5.89-9.16-6.622-9.277-19.76,5.22-17.017,10.556l4.562.926Z" fill="#2bd0d0"/>
    <path id="Path_25" data-name="Path 25" d="M247.832,270.484l14.457.512s3.672.228,4.62-2.717-5.89-9.16-6.622-9.277-19.76,5.22-17.017,10.556l4.562.926Z" fill="url(#linear-gradient-12)"/>
    <path id="Path_26" data-name="Path 26" d="M79,416.056l-7.058,21.677a56.279,56.279,0,0,1-37.88,0L29,415S54.535,423.56,79,416.056Z" fill="#2bd0d0"/>
    <path id="Path_27" data-name="Path 27" d="M79,416.056l-7.058,21.677a56.279,56.279,0,0,1-37.88,0L29,415S54.535,423.56,79,416.056Z" fill="url(#linear-gradient-13)"/>
    <path id="Path_28" data-name="Path 28" d="M87,396l-2.284,16.943-5.786,3.008c-24.648,7.42-50.415-1.038-50.415-1.038l-4.443-3.283L22,396Z" fill="#2bd0d0"/>
    <path id="Path_29" data-name="Path 29" d="M87,396l-2.284,16.943-5.786,3.008c-24.648,7.42-50.415-1.038-50.415-1.038l-4.443-3.283L22,396Z" fill="url(#linear-gradient-14)"/>
    <ellipse id="Ellipse_5" data-name="Ellipse 5" cx="32.5" cy="6" rx="32.5" ry="6" transform="translate(22 389)" fill="#2bd0d0"/>
    <ellipse id="Ellipse_6" data-name="Ellipse 6" cx="32.5" cy="6" rx="32.5" ry="6" transform="translate(22 389)" fill="url(#linear-gradient-15)"/>
    <path id="Path_30" data-name="Path 30" d="M39.641,265.03c-3.182-1.515-6.6-2.658-9.356-4.87-5.547-4.5-6.953-12.248-8.69-19.2s-5.1-14.593-11.944-16.587c-2.562-.737-5.567-.445-7.515,1.39-2.053,1.933-2.47,5.11-1.908,7.914s1.928,5.316,2.985,7.974A36.878,36.878,0,0,1,5.385,261.13c-.865,5.389-2.932,10.851-1.6,16.134,2.252,8.964,13.47,14.22,13.78,23.457.212,6.233-4.885,12-3.73,18.135.852,4.538,5,8.08,5.23,12.692.25,5.23-4.662,9.655-4.424,14.885s5.427,8.725,8.815,12.839a21.453,21.453,0,0,1,4.827,12.193c.178,2.791-.179,5.682.726,8.327a30.287,30.287,0,0,0,3,5.316,53.562,53.562,0,0,0,3.341,5.655,13.7,13.7,0,0,0,14.725,4.651c1.05-6.95.132-14.04.423-21.065.574-13.609,5.691-27.324,2.416-40.535-1.2-4.844-3.512-9.443-3.922-14.413-.363-4.44.812-8.838,1.631-13.217,1.69-9.044,1.664-18.394.97-27.538-.547-7.256-5.618-10.6-11.95-13.616Z" fill="#2bd0d0"/>
    <path id="Path_31" data-name="Path 31" d="M59.752,300.767c-.053,6.062,1.33,12.33-.612,18.085-1.47,4.362-4.7,7.934-6.371,12.223-3.85,9.9,1.33,21,.273,31.57-.44,4.354-1.936,8.537-2.88,12.813a51.236,51.236,0,0,0-.851,16.485,4.17,4.17,0,0,0,3.325,4.342A51.942,51.942,0,0,0,62.711,399a26.638,26.638,0,0,1,3.445-18.59c5.274-8.63,15.522-14.446,17.43-24.359,1.29-6.712-1.715-13.524-1.5-20.355a21.886,21.886,0,0,1,4.482-12.548c2.48-3.227,5.839-5.723,8.147-9.07,5.546-8.066,3.817-18.848,2.168-28.494s-2.607-20.748,3.91-28.057c2.062-2.31,4.748-4.044,6.617-6.513,4.163-5.5,3.112-13.983-1.73-18.9S93.043,225.832,86.46,228a13.86,13.86,0,0,0-7.01,4.76c-3.325,4.714-2,11.154-.585,16.757C80.1,254.38,81.086,260,79.4,264.9c-1.257,3.651-4.443,5.63-7.15,8.172a38.9,38.9,0,0,0-12.5,27.692Z" fill="#2bd0d0"/>
    <path id="Path_32" data-name="Path 32" d="M53.062,354.522c-.938,6.593-2.292,13.239-2.57,19.851v.665a1.757,1.757,0,0,1-.111.479,51.684,51.684,0,0,0-.866,16.5,6.307,6.307,0,0,0,.66,2.566c-.032.279-.072.551-.111.83a13.7,13.7,0,0,1-14.73-4.652,61.2,61.2,0,0,1-3.342-5.655,28.753,28.753,0,0,1-3.005-5.317c-.905-2.659-.549-5.536-.727-8.327a21.453,21.453,0,0,0-4.828-12.2c-3.389-4.087-8.587-7.516-8.818-12.833s4.676-9.656,4.425-14.887c-.224-4.612-4.379-8.154-5.23-12.693-1.157-6.135,3.962-11.9,3.731-18.137-.31-9.238-11.532-14.495-13.785-23.46-1.32-5.284.74-10.747,1.605-16.136a36.876,36.876,0,0,0-2.146-19.46C2.157,239,.79,236.5.228,233.686s-.145-5.981,1.909-7.922a7.889,7.889,0,0,1,7.517-1.389c6.856,1.994,10.2,9.664,11.948,16.615s3.144,14.694,8.692,19.2c2.742,2.227,6.176,3.356,9.36,4.872,6.34,3.017,11.413,6.36,11.955,13.55.66,9.145.72,18.5-.97,27.541-.82,4.38-1.982,8.78-1.632,13.219s2.272,8.64,3.527,12.946c.139.485.277.977.4,1.469,1.665,6.839,1.13,13.757.132,20.735Z" fill="#30c59b"/>
    <path id="Path_33" data-name="Path 33" d="M49.718,394a7.789,7.789,0,0,1-.5-2.488,67.109,67.109,0,0,1,.637-16.047c.023-.155.052-.31.08-.465-.171,6.346.374,12.744-.215,19Z" fill="url(#linear-gradient-16)"/>
    <path id="Path_34" data-name="Path 34" d="M107.393,251.014c-1.871,2.47-4.562,4.2-6.627,6.513-6.527,7.3-5.568,18.41-3.916,28.057s3.383,20.428-2.172,28.495c-2.31,3.32-5.674,5.842-8.159,9.069a21.865,21.865,0,0,0-4.49,12.548c-.212,6.831,2.8,13.643,1.506,20.355-1.911,9.913-12.175,15.742-17.457,24.36A26.644,26.644,0,0,0,62.654,399a51.823,51.823,0,0,1-10.064-2.715,5.424,5.424,0,0,1-2.344-1.415,2.5,2.5,0,0,1-.247-.345,6.232,6.232,0,0,1-.7-2.55,51.152,51.152,0,0,1,.886-16.484c.033-.16.073-.319.113-.478.946-4.11,2.345-8.14,2.771-12.336a39.841,39.841,0,0,0-.16-8.166c1.006-6.971,1.545-13.882-.153-20.668-.12-.49-.26-.982-.4-1.467.127-.425.273-.85.44-1.268,1.672-4.289,4.909-7.86,6.38-12.223,1.939-5.756.56-12.023.613-18.085a38.971,38.971,0,0,1,12.429-27.725c2.71-2.542,5.9-4.52,7.16-8.172,1.685-4.907.666-10.523-.54-15.39-1.418-5.6-2.764-12.043.587-16.757a13.771,13.771,0,0,1,7.02-4.76c6.567-2.165,14.407-.8,19.249,4.116s5.868,13.43,1.7,18.9Z" fill="#30c59b"/>
    <path id="Path_35" data-name="Path 35" d="M225.573,146.146s-27.817,4.3-40.684,34.977-6.176,68.683-5.951,72.027S218.366,271,229.573,271s13.542-11.229,13.542-11.229l-19.8-8.433,60.17-6.949h10.8l-5.951,10.032s11.743,1.23,19.592,1.511,13.178-15.24,14.057-22.959-34.667-75.458-39.977-79.47-19.717-13.817-56.434-7.357Z" fill="#2bd0d0"/>
    <path id="Path_36" data-name="Path 36" d="M258.392,88.776s5.032,2.83,4.58,11.985-3.29,22.932-6.153,26.5-12.88,4.968-12.88,4.968,5.464,12.977,9.53,16.326-4.086,15.687-12.015,11.639-17.12-14.216-17.12-14.216,6.612-12.245,4.376-18.69-10.772-29.064-4.376-35.242,20.186-15.035,34.058-3.27Z" fill="url(#linear-gradient-17)"/>
    <path id="Path_37" data-name="Path 37" d="M214.334,190,210,244.055,223.238,251,234,249.122l-13.428-16.5ZM284,187s17.909,42.077,9.97,57l-6.116-1.16Z" fill="#fff" opacity="0.25"/>
    <path id="Path_38" data-name="Path 38" d="M235.522,258.045s-6.766,5.775-3.746,10.267,6.625,4.363,9.631,2.355,8.911-6.776,15.946-4.588,8.744,3.58,8.744,3.58,3.7-2.316,2.744-4.639-8.32-9.85-10.452-10.825-10.983,2.021-10.983,2.021-6.5-1.758-11.884,1.83Z" fill="url(#linear-gradient-18)"/>
    <path id="Path_39" data-name="Path 39" d="M295.191,245.6s-6.385.759-8,4.957-2.193,4.71-2.193,4.71,3.606.69,5.106-1.264,3.059-1.133,3.059-1.133l-.447,2.507s9.8,1.477,14.224-.11a18.5,18.5,0,0,0,6.325-3.453l1.733-4.24s-4.18-3.03-7.332-3.5-12.477,1.526-12.477,1.526Z" fill="url(#linear-gradient-19)"/>
    <path id="Path_40" data-name="Path 40" d="M328.893,290s21.934,16.687,19.984,39.259-4.813,56.087-4.813,56.087-8.846,3.722-14.707,0-9.411-54.65-12.315-59.513S296.667,299.043,278,297.154Z" fill="#25233a"/>
    <path id="Path_41" data-name="Path 41" d="M219,306.058s10.444,9.895,29.062,13,27.3,5.7,32.987,21.605S292.2,390.8,293.984,394.628s9.382,1.874,9.382,1.874,4.3-4.895,4.3-32.114c0-37.946,2.655-45.724-6.913-55.256S282.477,297,282.477,297Z" fill="#3f3d56"/>
    <path id="Path_42" data-name="Path 42" d="M294,396l1.82,14.2h3.408s21.948,1.187,22.636.675-1.057-11.243-9.372-10.94-8.861-2.023-8.861-2.023Zm37-9.844L334.518,400l38.437-5.212s1.353-9.093-10.823-8.191c-3.214.234-5.608,2.465-9.471,2.485S345.1,387.539,343.15,385Z" fill="#25233a"/>
    <path id="Path_43" data-name="Path 43" d="M461.8,212.337l-142.243,7.654A6.253,6.253,0,0,1,313,214.065V112.473a7.526,7.526,0,0,1,7.348-7.535L462.009,102A6.867,6.867,0,0,1,469,108.745v95.971a7.627,7.627,0,0,1-7.2,7.621Z" fill="#2bd0d0"/>
    <path id="Path_44" data-name="Path 44" d="M469.8,212.337l-142.25,7.655a6.254,6.254,0,0,1-6.55-5.934V112.473a7.512,7.512,0,0,1,7.342-7.535L470.022,102A6.867,6.867,0,0,1,477,108.739v95.977a7.625,7.625,0,0,1-7.2,7.621Z" fill="#2bd0d0"/>
    <path id="Path_45" data-name="Path 45" d="M469.8,212.337l-142.25,7.655a6.254,6.254,0,0,1-6.55-5.934V112.473a7.512,7.512,0,0,1,7.342-7.535L470.022,102A6.867,6.867,0,0,1,477,108.739v95.977a7.625,7.625,0,0,1-7.2,7.621Z" fill="url(#linear-gradient-20)"/>
    <path id="Path_46" data-name="Path 46" d="M427.773,251.138,391.478,255s-11.053-2.23-10.455-3.862,12.156-3.205,12.156-3.205v-65.8c-.1-.146-1.621-2.084-5.789-3.319a20.874,20.874,0,0,0-2.459-.57,7.252,7.252,0,0,1-2.06-.624c-2.479-1.28.26-3.51,4.107-3.61a9.624,9.624,0,0,1,1.8.106h27.913s10.568,2.973,11.08,17.811,0,59.215,0,59.215Z" fill="#3a3054"/>
    <path id="Path_47" data-name="Path 47" d="M398,251.277,391.322,255s-10.888-2.23-10.3-3.863,11.995-3.205,11.995-3.205V182.123a14.934,14.934,0,0,0-5.7-3.318,28.64,28.64,0,0,0-4.452-1.195c-2.442-1.28.255-3.51,4.046-3.61,3.228.445,9.585,4.028,10,6.073s1.093,71.2,1.093,71.2Z" fill="#51466b"/>
    <path id="Path_48" data-name="Path 48" d="M263,389c-.881,1-1.29,1.37-.77.547A5.61,5.61,0,0,0,263,389Z" fill="url(#linear-gradient-21)"/>
  </g>
</svg>
